<svg width="32" height="38" viewBox="0 0 32 38" fill="none" xmlns="http://www.w3.org/2000/svg">
<path fill-rule="evenodd" clip-rule="evenodd" d="M6.25738 0.5H2.00329C0.417926 0.5 -0.537196 2.25648 0.32458 3.58717L9.60216 17.9128C10.0305 18.5743 10.0305 19.4257 9.60216 20.0872L0.324578 34.4128C-0.537196 35.7435 0.417926 37.5 2.00329 37.5H6.25738C6.91683 37.5 7.53389 37.1749 7.90683 36.6311L19.2211 20.1311C19.6885 19.4494 19.6885 18.5506 19.2211 17.8689L7.90683 1.36894C7.53389 0.825074 6.91683 0.5 6.25738 0.5ZM23.1018 1.37623L18.1305 8.69503C17.6633 9.38296 17.6704 10.2883 18.1486 10.9687L20.3084 14.0423C21.1022 15.1719 22.7746 15.1766 23.5747 14.0514L30.9648 3.65905C31.9064 2.33489 30.9597 0.5 29.3349 0.5H24.7562C24.0937 0.5 23.4741 0.828141 23.1018 1.37623ZM18.1305 29.305L23.1018 36.6238C23.4741 37.1719 24.0937 37.5 24.7562 37.5H29.3349C30.9597 37.5 31.9064 35.6651 30.9648 34.341L23.5747 23.9486C22.7746 22.8234 21.1022 22.8281 20.3084 23.9577L18.1486 27.0313C17.6704 27.7117 17.6633 28.617 18.1305 29.305Z" fill="url(#paint0_linear_2558_2083)"/>
<defs>
<linearGradient id="paint0_linear_2558_2083" x1="0.433069" y1="18.9441" x2="31.3384" y2="18.9441" gradientUnits="userSpaceOnUse">
<stop stop-color="#5555FF"/>
<stop offset="1" stop-color="#F3A2CF"/>
</linearGradient>
</defs>
</svg>
