<svg width="25" height="25" viewBox="0 0 25 25" fill="none" xmlns="http://www.w3.org/2000/svg">
<path d="M3.90625 5.46875C4.33772 5.46875 4.6875 5.11897 4.6875 4.6875C4.6875 4.25603 4.33772 3.90625 3.90625 3.90625C3.47478 3.90625 3.125 4.25603 3.125 4.6875C3.125 5.11897 3.47478 5.46875 3.90625 5.46875Z" stroke="white" stroke-width="2" stroke-miterlimit="10" stroke-linecap="round" stroke-linejoin="round"/>
<path d="M3.90625 13.2812C4.33772 13.2812 4.6875 12.9315 4.6875 12.5C4.6875 12.0685 4.33772 11.7188 3.90625 11.7188C3.47478 11.7188 3.125 12.0685 3.125 12.5C3.125 12.9315 3.47478 13.2812 3.90625 13.2812Z" stroke="white" stroke-width="2" stroke-miterlimit="10" stroke-linecap="round" stroke-linejoin="round"/>
<path d="M3.90625 21.0938C4.33772 21.0938 4.6875 20.744 4.6875 20.3125C4.6875 19.881 4.33772 19.5312 3.90625 19.5312C3.47478 19.5312 3.125 19.881 3.125 20.3125C3.125 20.744 3.47478 21.0938 3.90625 21.0938Z" stroke="white" stroke-width="2" stroke-miterlimit="10" stroke-linecap="round" stroke-linejoin="round"/>
<path d="M7.8125 4.6875H21.875" stroke="white" stroke-width="2" stroke-miterlimit="10" stroke-linecap="round" stroke-linejoin="round"/>
<path d="M7.8125 12.5H21.875" stroke="white" stroke-width="2" stroke-miterlimit="10" stroke-linecap="round" stroke-linejoin="round"/>
<path d="M7.8125 20.3125H21.875" stroke="white" stroke-width="2" stroke-miterlimit="10" stroke-linecap="round" stroke-linejoin="round"/>
</svg>
